# xmcd CD database file
#
# Track frame offsets:
#	150
#	23770
#	37458
#	69040
#	111821
#	130597
#	157346
#	171814
#
# Disc length: 3187 seconds
#
# Revision: 0
# Processed by: cddbd v1.4PL0 Copyright (c) Steve Scherf et al.
# Submitted via: CDex 1.50
#
DISCID=670c7108
DTITLE=Landslide - Flairline
DYEAR=2003
DGENRE=Blues
TTITLE0=Move Too Soon
TTITLE1=Rugged Road
TTITLE2=Lovelight
TTITLE3=Oye Como Va
TTITLE4=Take Me To The River
TTITLE5=Crossroads
TTITLE6=Belgian Tom's Hat Trick
TTITLE7=Funky Nassau
EXTD=YEAR: 2003
EXTT0=
EXTT1=
EXTT2=
EXTT3=
EXTT4=
EXTT5=
EXTT6=
EXTT7=
PLAYORDER=
